<?xml version="1.0" encoding="iso-8859-1"?>
<!-- Generator: Adobe Illustrator 19.0.0, SVG Export Plug-In . SVG Version: 6.00 Build 0)  -->
<svg version="1.1" id="Capa_1" xmlns="http://www.w3.org/2000/svg" xmlns:xlink="http://www.w3.org/1999/xlink" x="0px" y="0px"
	 viewBox="0 0 512 512" style="enable-background:new 0 0 512 512;" xml:space="preserve">
<polygon style="fill:rgba(0, 0, 0, 0.6);" points="335.939,156.652 192.059,151.312 192.049,151.322 75.999,190.002 255.999,250.002 
	435.999,190.002 "/>
<path style="fill:#FF8087;" d="M355.999,100.002c0,50.076-40.662,90-90,90c-49.797,0-90-40.401-90-90c0-50.023,40.609-90,90-90
	C315.906,10.002,355.999,50.47,355.999,100.002z"/>
<path style="fill:#FFC350;" d="M435.929,276.762l-179.93-26.76l-160,30.99v161.01l160,60l180-60v-165L435.929,276.762z"/>
<g>
	<polygon style="fill:#FFD164;" points="353.319,78.112 335.939,156.652 435.999,190.002 501.999,124.002 	"/>
	<path style="fill:#FFD164;" d="M255.999,250.002l53.26,66.57c0.375-0.118,192.394-60.461,192.74-60.57l-66-66L255.999,250.002z"/>
	<path style="fill:#FFD164;" d="M33.839,260.272c34.38,11.46,145.512,48.504,180,60l42.16-70.27l-180-60L33.839,260.272z"/>
	<polygon style="fill:#FFD164;" points="180.869,70.722 9.999,124.002 75.999,190.002 192.049,151.322 192.059,151.312 	"/>
</g>
<path d="M155.999,390.002c5.52,0,10-4.48,10-10s-4.48-10-10-10s-10,4.48-10,10S150.479,390.002,155.999,390.002z"/>
<path d="M63.407,191.552l-38.144,63.575c-1.561,2.601-1.856,5.77-0.804,8.615s3.339,5.058,6.217,6.017l55.323,18.44v153.802
	c0,4.168,2.586,7.899,6.489,9.363c33.827,12.684,159.512,59.822,160.187,60.061c1.984,0.699,4.219,0.794,6.398,0.089
	c0.029-0.01,0.059-0.016,0.088-0.026l180-60c4.083-1.361,6.838-5.183,6.838-9.487v-157.92l58.998-18.54
	c3.336-1.048,5.882-3.762,6.715-7.158c0.832-3.396-0.169-6.98-2.641-9.453l-58.929-58.929l58.929-58.929
	c2.479-2.479,3.478-6.075,2.635-9.477c-0.843-3.403-3.407-6.115-6.757-7.149L361.45,70.156
	c-12.936-41.581-51.384-70.154-95.451-70.154c-40.964,0-77.6,24.965-92.763,62.625L7.022,114.455
	c-3.341,1.042-5.895,3.756-6.732,7.155c-0.837,3.398,0.163,6.988,2.638,9.463L63.407,191.552z M80.447,202.025l160.563,53.521
	l-31.619,52.702c-17.145-5.715-142.258-47.42-160.564-53.521L80.447,202.025z M188.417,163.073
	c18.91,23.247,47.377,36.929,77.582,36.929c27.942,0,54.203-11.499,73.092-31.759l65.284,21.759l-148.376,49.459l-148.376-49.458
	L188.417,163.073z M105.999,294.866c110.15,36.522,104.771,35.407,107.838,35.407c3.438,0,6.73-1.779,8.577-4.856l23.585-39.311
	v201.466l-140-52.5V294.866z M425.999,434.794l-160,53.333v-209.62l35.451,44.31c2.579,3.223,6.872,4.529,10.807,3.293
	l113.742-35.743V434.794z M483.262,251.407l-170.471,53.572l-40.024-50.026l160.531-53.51L483.262,251.407z M433.298,178.56
	l-81.528-27.173c9.232-15.431,14.229-33.237,14.229-51.385c0-2.541-0.107-5.076-0.298-7.603l117.494,36.265L433.298,178.56z
	 M265.999,20.002c36.801,0,68.719,24.892,77.618,60.532c1.581,6.333,2.382,12.883,2.382,19.468c0,18.574-6.164,35.983-17.828,50.352
	c-15.277,18.842-37.938,29.648-62.172,29.648c-26.196,0-50.767-12.858-65.733-34.404c-9.333-13.406-14.267-29.174-14.267-45.596
	c0-8.931,1.455-17.688,4.327-26.028C201.427,41.692,231.838,20.002,265.999,20.002z M167.064,85.501
	c-0.694,4.778-1.065,9.618-1.065,14.5c0,16.101,3.814,31.696,11.084,45.767L78.7,178.56l-49.936-49.935L167.064,85.501z"/>
<path d="M190.248,402.585l22.24,8.34c5.182,1.942,10.939-0.69,12.875-5.852c1.939-5.171-0.681-10.936-5.852-12.875l-22.24-8.34
	c-5.171-1.938-10.935,0.681-12.875,5.852C182.457,394.882,185.077,400.646,190.248,402.585z"/>
<path d="M219.51,434.918l-60-22.5c-5.171-1.939-10.935,0.681-12.875,5.852s0.681,10.936,5.852,12.875l60,22.5
	c1.157,0.434,2.343,0.64,3.51,0.64c4.049,0,7.859-2.477,9.365-6.492C227.302,442.621,224.682,436.857,219.51,434.918z"/>
<path d="M248.928,137.073c3.905,3.905,10.237,3.905,14.143,0l60-60c3.905-3.905,3.905-10.237,0-14.143s-10.237-3.905-14.143,0
	l-52.929,52.93l-12.929-12.929c-3.905-3.905-10.237-3.905-14.143,0s-3.905,10.237,0,14.143L248.928,137.073z"/>
<g>
</g>
<g>
</g>
<g>
</g>
<g>
</g>
<g>
</g>
<g>
</g>
<g>
</g>
<g>
</g>
<g>
</g>
<g>
</g>
<g>
</g>
<g>
</g>
<g>
</g>
<g>
</g>
<g>
</g>
</svg>
