<svg xmlns="http://www.w3.org/2000/svg" xmlns:xlink="http://www.w3.org/1999/xlink" id="Capa_1" x="0" y="0" enable-background="new 0 0 512 512" version="1.1" viewBox="0 0 512 512" xml:space="preserve"><g><polyline fill="#FFE17D" points="452.267 388.413 503.467 388.413 503.467 294.546 426.667 175.079 332.8 175.079 332.8 388.413 366.933 388.413"/><polyline fill="#FFD164" points="76.8 388.413 8.533 388.413 8.533 115.346 332.8 115.346 332.8 388.413 162.133 388.413"/></g><g><rect width="51.2" height="17.067" x="8.533" y="345.746" fill="#F46B27"/><rect width="153.6" height="17.067" x="179.2" y="345.746" fill="#F46B27"/></g><rect width="34.133" height="17.067" x="469.333" y="345.746" fill="#DBDBDB"/><rect width="298.667" height="17.067" x="34.133" y="140.946" fill="#F46B27"/><g><circle cx="119.467" cy="388.413" r="42.667" fill="#666"/><circle cx="409.6" cy="388.413" r="42.667" fill="#666"/></g><g><rect width="17.067" height="17.067" x="110.933" y="379.879" fill="#DBDBDB"/><rect width="17.067" height="17.067" x="401.067" y="379.879" fill="#DBDBDB"/><rect width="119.467" height="17.067" x="34.133" y="72.679" fill="#DBDBDB"/><rect width="17.067" height="17.067" y="72.679" fill="#DBDBDB"/></g><polygon fill="#e87288" points="448.597 209.213 366.933 209.213 366.933 286.013 498.005 286.013"/><rect width="17.067" height="213.333" x="332.8" y="175.079" fill="#FFC350"/><path fill="#FF8087" d="M498.005,286.013l-46.336-72.107c-22.775,27.025-51.883,47.983-84.736,61.013v11.093H498.005z"/><path d="M433.835,170.471c-1.57-2.441-4.267-3.917-7.168-3.925h-85.333v-51.2c0-4.71-3.823-8.533-8.533-8.533H8.533	c-4.71,0-8.533,3.823-8.533,8.533v273.067c0,4.71,3.823,8.533,8.533,8.533h60.501c4.881,27.853,31.411,46.473,59.264,41.6	c21.239-3.721,37.879-20.352,41.6-41.6h189.269c4.881,27.853,31.411,46.473,59.264,41.6c21.239-3.721,37.879-20.352,41.6-41.6	h43.435c4.71,0,8.533-3.823,8.533-8.533v-93.867c0-1.638-0.478-3.234-1.365-4.608L433.835,170.471z M443.733,217.746l38.656,59.733	H375.467v-59.733L443.733,217.746L443.733,217.746z M119.467,422.546c-18.85,0-34.133-15.283-34.133-34.133	s15.283-34.133,34.133-34.133s34.133,15.283,34.133,34.133S138.317,422.546,119.467,422.546z M119.467,337.213	c-24.969,0.026-46.268,18.048-50.432,42.667H17.067v-17.067h42.667v-17.067H17.067V123.879h307.2v17.067H34.133v17.067h290.133	v187.733H179.2v17.067h145.067v17.067H169.899C165.734,355.269,144.435,337.238,119.467,337.213z M409.6,422.546	c-18.85,0-34.133-15.283-34.133-34.133s15.283-34.133,34.133-34.133c18.85,0,34.133,15.283,34.133,34.133	S428.45,422.546,409.6,422.546z M460.032,379.879c-4.881-27.853-31.411-46.473-59.264-41.6c-21.239,3.721-37.879,20.352-41.6,41.6	h-17.835V183.613h80.64l11.008,17.067h-66.048c-4.71,0-8.533,3.823-8.533,8.533v76.8c0,4.71,3.823,8.533,8.533,8.533h126.379	l1.621,2.475v48.725h-25.6v17.067h25.6v17.067H460.032z"/><rect width="17.067" height="17.067" x="110.933" y="379.879"/><rect width="17.067" height="17.067" x="401.067" y="379.879"/><rect width="119.467" height="17.067" x="34.133" y="72.679"/><rect width="17.067" height="17.067" y="72.679"/></svg>